<svg xmlns="http://www.w3.org/2000/svg" width="128" height="128" viewBox="0 0 24 24" fill="none" stroke="#6366f1" stroke-width="1.6" stroke-linecap="round" stroke-linejoin="round">
  <!-- Simple fingerprint-style icon (brand color) -->
  <path d="M12 3a7 7 0 0 1 7 7"/>
  <path d="M5 10a7 7 0 0 1 7-7"/>
  <path d="M4.5 14a9.5 9.5 0 0 0 4.5 6"/>
  <path d="M12 7a5 5 0 0 1 5 5"/>
  <path d="M7 12a5 5 0 0 1 5-5"/>
  <path d="M12 11a3 3 0 0 1 3 3"/>
  <path d="M9 14a3 3 0 0 1 3-3"/>
  <path d="M12 15c0 2 1 3.5 2.5 5"/>
  <path d="M8.5 16c.3 1.5 1 3 2 4"/>
</svg>

